<?xml version="1.0" standalone="yes"?>
<svg width="512" height="512">
<path style="fill:#000000; stroke:none;" d="M0 0L0 233L1 233C1.01625 208.458 9.10165 182.565 18.2006 160C45.7493 91.6796 104.046 36.336 174 13C192.649 6.77878 213.21 1.0545 233 1L211 0L164 0L0 0z"/>
<path style="fill:#ffb54a; stroke:none;" d="M222 510C213.919 498.528 201.918 488.918 192 479L134 421C124.356 411.356 108.297 400.236 102.179 388C99.0088 381.66 101 370.951 101 364L101 310L101 114L155 114C161.532 114 171.131 112.028 176 117C186.081 119.826 197.296 135.734 205 142.91C224.343 160.929 243.894 178.77 263 197.039C271.594 205.257 281.222 217.974 292 223C301.065 196.206 313.492 170.268 324 144C326.828 136.93 330.701 119.109 337.275 115.028C340.583 112.974 346.273 114 350 114L379 114C387.557 114 403.611 110.939 411 115.603C419.941 121.248 427.536 131.536 435 139L483 187C491.329 195.329 499.363 205.211 509 212C499.045 160.663 476.214 113.214 439 76C407.238 44.2384 369.219 21.4026 326 9C180.474 -32.762 25.6341 66.3495 2.42438 216C-14.9821 328.233 45.3542 443.593 150 489.86C171.902 499.544 197.731 509.499 222 510z"/>
<path style="fill:#000000; stroke:none;" d="M279 0L279 1C369.417 1.24905 454.795 73.2281 490.306 152C501.421 176.656 510.925 205.682 511 233L512 233L512 0L279 0z"/>
<path style="fill:#fdce85; stroke:none;" d="M101 114L101 115L175 115L152 114L101 114z"/>
<path style="fill:#f1d1a1; stroke:none;" d="M336 114L336 115L411 115L388 114L336 114z"/>
<path style="fill:#f8fffb; stroke:none;" d="M101 115L101 388L159 388L159 228L160 228C162.32 241.471 170.291 255.405 175.576 268C185.88 292.556 195.91 317.275 205.8 342C210.075 352.686 214.341 363.412 218.85 374C220.428 377.705 221.707 383.594 224.699 386.397C229.968 391.331 248.983 388 256 388C256 363.514 260.038 335.049 255.532 311C253.053 297.767 245.225 284.46 240.201 272C228.483 242.94 216.237 214.092 204.6 185C197.915 168.287 190.886 151.714 184.2 135C182.156 129.89 179.965 119.323 175.351 116.028C171.028 112.94 160.147 115 155 115L101 115z"/>
<path style="fill:#d8d8d8; stroke:none;" d="M335 115L317.011 160L280.4 250L264.011 290L255 309C259.639 333.985 256 362.59 256 388L288 388C299.477 347.854 320.283 308.791 335.8 270C341.154 256.617 349.551 242.222 352 228L353 228L353 393L411 393L411 115L335 115z"/>
<path style="fill:#f9880d; stroke:none;" d="M411 115L411 393L353 393L353 228L352 228C340.93 268.474 319.592 308.02 304 347C298.775 360.061 290.462 374.148 288 388L244 388C239.055 388 230.598 389.603 226.225 386.972C222.744 384.879 221.64 379.5 220.15 376C215.915 366.058 211.824 356.029 207.8 346C192.303 307.376 170.971 268.111 160 228L159 228L159 388L102 388C107.309 399.385 121.157 409.157 130 418L193 481C201.287 489.287 213.52 507.372 225 510.567C244.584 516.018 271.118 512.534 291 510.155C394.666 497.75 480.429 417.244 505.373 317C511.07 294.109 512 271.451 512 248C512 237.456 512.668 224.027 508.968 214C504.867 202.89 489.276 192.276 481 184C458.705 161.705 436.751 133.139 411 115M177 116C180.033 136.234 193.183 158.081 200.989 177C219.108 220.911 237.82 264.717 255 309L257 309L281.2 249L290.303 225L283.999 216L263 196.09L206 142.91L177 116z"/>
<path style="fill:#000000; stroke:none;" d="M0 279L0 512L233 512L233 511C144.924 510.757 58.6505 440.98 23.3086 364C15.393 346.759 9.16444 328.566 5.21065 310C3.16112 300.376 3.74146 287.896 0 279M511 279C510.932 303.566 502.906 329.415 493.799 352C466.251 420.32 407.954 475.664 338 499C319.315 505.233 298.831 510.945 279 511L279 512L512 512L512 348L512 301L511 279z"/>
</svg>
